<svg width="498" height="495" viewBox="0 0 498 495" fill="none" xmlns="http://www.w3.org/2000/svg">
<g filter="url(#filter0_i)">
<circle cx="242" cy="253" r="242" fill="#D2AD28"/>
</g>
<circle cx="243.5" cy="21.5" r="4.5" fill="#F7E22B"/>
<circle cx="243.5" cy="484.5" r="4.5" fill="#F7E22B"/>
<circle cx="473.5" cy="253.5" r="4.5" fill="#F7E22B"/>
<circle cx="10.5" cy="252.5" r="4.5" fill="#F7E22B"/>
<circle cx="24.5" cy="171.5" r="4.5" fill="#F7E22B"/>
<circle cx="80.5" cy="86.5" r="4.5" fill="#F7E22B"/>
<circle cx="151.5" cy="39.5" r="4.5" fill="#F7E22B"/>
<circle cx="331.5" cy="38.5" r="4.5" fill="#F7E22B"/>
<circle cx="408.5" cy="92.5" r="4.5" fill="#F7E22B"/>
<circle cx="457.5" cy="169.5" r="4.5" fill="#F7E22B"/>
<circle cx="459.5" cy="331.5" r="4.5" fill="#F7E22B"/>
<circle cx="405.5" cy="417.5" r="4.5" fill="#F7E22B"/>
<circle cx="334.5" cy="465.5" r="4.5" fill="#F7E22B"/>
<circle cx="154.5" cy="468.5" r="4.5" fill="#F7E22B"/>
<circle cx="76.5" cy="416.5" r="4.5" fill="#F7E22B"/>
<circle cx="26.5" cy="339.5" r="4.5" fill="#F7E22B"/>
<circle cx="242.228" cy="254.5" r="221.5" fill="white"/>
<path d="M242.787 253.249L34.7868 176.136C34.7868 176.136 53.787 115.682 116.287 72.1365C178.787 28.5914 242.787 32.6365 242.787 32.6365L242.787 253.249Z" fill="#F88720"/>
<path d="M242.288 255.136L105.788 428.636C105.788 428.636 50.5535 393 29.228 315.5C7.90253 238 34.2875 178.136 34.2875 178.136L242.288 255.136Z" fill="#36B359"/>
<path d="M244.744 253.714L244.787 32.6364C244.787 32.6364 308.044 29.501 370.447 73.1847C432.85 116.868 448.287 172.136 448.287 172.136L244.744 253.714Z" fill="#4BD1B1"/>
<path d="M243.787 257.136L375.788 430.636C375.788 430.636 324.287 476.136 244.287 476.136C164.287 476.136 107.288 430.136 107.288 430.136L243.787 257.136Z" fill="#E978BC"/>
<path d="M245.288 255.636L448.788 174.136C448.788 174.136 478.788 242.636 453.288 321.136C427.788 399.636 377.288 429.636 377.288 429.636L245.288 255.636Z" fill="#9B59EE"/>
<g filter="url(#filter1_dif)">
<path d="M274 252C274 268.016 260.345 281 243.5 281C226.655 281 213 268.016 213 252C213 235.984 226.655 223 243.5 223C260.345 223 274 235.984 274 252Z" fill="#ECC562"/>
</g>
<defs>
<filter id="filter0_i" x="0" y="11" width="484" height="488" filterUnits="userSpaceOnUse" color-interpolation-filters="sRGB">
<feFlood flood-opacity="0" result="BackgroundImageFix"/>
<feBlend mode="normal" in="SourceGraphic" in2="BackgroundImageFix" result="shape"/>
<feColorMatrix in="SourceAlpha" type="matrix" values="0 0 0 0 0 0 0 0 0 0 0 0 0 0 0 0 0 0 127 0" result="hardAlpha"/>
<feOffset dy="4"/>
<feGaussianBlur stdDeviation="2"/>
<feComposite in2="hardAlpha" operator="arithmetic" k2="-1" k3="1"/>
<feColorMatrix type="matrix" values="0 0 0 0 0 0 0 0 0 0 0 0 0 0 0 0 0 0 0.25 0"/>
<feBlend mode="normal" in2="shape" result="effect1_innerShadow"/>
</filter>
<filter id="filter1_dif" x="208" y="218" width="71" height="71" filterUnits="userSpaceOnUse" color-interpolation-filters="sRGB">
<feFlood flood-opacity="0" result="BackgroundImageFix"/>
<feColorMatrix in="SourceAlpha" type="matrix" values="0 0 0 0 0 0 0 0 0 0 0 0 0 0 0 0 0 0 127 0"/>
<feOffset dy="4"/>
<feGaussianBlur stdDeviation="2"/>
<feColorMatrix type="matrix" values="0 0 0 0 0 0 0 0 0 0 0 0 0 0 0 0 0 0 0.25 0"/>
<feBlend mode="normal" in2="BackgroundImageFix" result="effect1_dropShadow"/>
<feBlend mode="normal" in="SourceGraphic" in2="effect1_dropShadow" result="shape"/>
<feColorMatrix in="SourceAlpha" type="matrix" values="0 0 0 0 0 0 0 0 0 0 0 0 0 0 0 0 0 0 127 0" result="hardAlpha"/>
<feOffset dy="4"/>
<feGaussianBlur stdDeviation="2"/>
<feComposite in2="hardAlpha" operator="arithmetic" k2="-1" k3="1"/>
<feColorMatrix type="matrix" values="0 0 0 0 0 0 0 0 0 0 0 0 0 0 0 0 0 0 0.25 0"/>
<feBlend mode="normal" in2="shape" result="effect2_innerShadow"/>
<feGaussianBlur stdDeviation="2.5" result="effect3_foregroundBlur"/>
</filter>
</defs>
</svg>
