<svg width="643" height="177" viewBox="0 0 643 177" fill="none" xmlns="http://www.w3.org/2000/svg">
<rect width="643" height="177" rx="25" fill="#D2AD28"/>
<rect x="18" y="21" width="606" height="136" rx="10" fill="#EACECE"/>
<path d="M147.9 75.55C149.133 75.55 150.15 75.95 150.95 76.75C151.75 77.5167 152.15 78.4833 152.15 79.65C152.15 80.8167 151.75 81.8 150.95 82.6C150.15 83.3667 149.133 83.75 147.9 83.75C146.633 83.75 145.583 83.3667 144.75 82.6C143.95 81.8 143.55 80.8167 143.55 79.65C143.55 78.4833 143.95 77.5167 144.75 76.75C145.583 75.95 146.633 75.55 147.9 75.55ZM144.8 87.25H150.7L151.5 111.4H143.95L144.8 87.25ZM184.426 79.6C183.626 78.1333 182.526 77.0167 181.126 76.25C179.726 75.4833 178.092 75.1 176.226 75.1C174.159 75.1 172.326 75.5667 170.726 76.5C169.126 77.4333 167.876 78.7667 166.976 80.5C166.076 82.2333 165.626 84.2333 165.626 86.5C165.626 88.8333 166.076 90.8667 166.976 92.6C167.909 94.3333 169.192 95.6667 170.826 96.6C172.459 97.5333 174.359 98 176.526 98C179.192 98 181.376 97.3 183.076 95.9C184.776 94.4667 185.892 92.4833 186.426 89.95H174.426V84.6H193.326V90.7C192.859 93.1333 191.859 95.3833 190.326 97.45C188.792 99.5167 186.809 101.183 184.376 102.45C181.976 103.683 179.276 104.3 176.276 104.3C172.909 104.3 169.859 103.55 167.126 102.05C164.426 100.517 162.292 98.4 160.726 95.7C159.192 93 158.426 89.9333 158.426 86.5C158.426 83.0667 159.192 80 160.726 77.3C162.292 74.5667 164.426 72.45 167.126 70.95C169.859 69.4167 172.892 68.65 176.226 68.65C180.159 68.65 183.576 69.6167 186.476 71.55C189.376 73.45 191.376 76.1333 192.476 79.6H184.426ZM202.055 73C200.821 73 199.788 72.6167 198.955 71.85C198.155 71.05 197.755 70.0667 197.755 68.9C197.755 67.7333 198.155 66.7667 198.955 66C199.788 65.2 200.821 64.8 202.055 64.8C203.288 64.8 204.305 65.2 205.105 66C205.938 66.7667 206.355 67.7333 206.355 68.9C206.355 70.0667 205.938 71.05 205.105 71.85C204.305 72.6167 203.288 73 202.055 73ZM205.505 76.3V104H198.505V76.3H205.505ZM219.421 80.6C220.321 79.1333 221.487 77.9833 222.921 77.15C224.387 76.3167 226.054 75.9 227.921 75.9V83.25H226.071C223.871 83.25 222.204 83.7667 221.071 84.8C219.971 85.8333 219.421 87.6333 219.421 90.2V104H212.421V76.3H219.421V80.6ZM230.836 90.05C230.836 87.25 231.386 84.7667 232.486 82.6C233.619 80.4333 235.136 78.7667 237.036 77.6C238.969 76.4333 241.119 75.85 243.486 75.85C245.552 75.85 247.352 76.2667 248.886 77.1C250.452 77.9333 251.702 78.9833 252.636 80.25V76.3H259.686V104H252.636V99.95C251.736 101.25 250.486 102.333 248.886 103.2C247.319 104.033 245.502 104.45 243.436 104.45C241.102 104.45 238.969 103.85 237.036 102.65C235.136 101.45 233.619 99.7667 232.486 97.6C231.386 95.4 230.836 92.8833 230.836 90.05ZM252.636 90.15C252.636 88.45 252.302 87 251.636 85.8C250.969 84.5667 250.069 83.6333 248.936 83C247.802 82.3333 246.586 82 245.286 82C243.986 82 242.786 82.3167 241.686 82.95C240.586 83.5833 239.686 84.5167 238.986 85.75C238.319 86.95 237.986 88.3833 237.986 90.05C237.986 91.7167 238.319 93.1833 238.986 94.45C239.686 95.6833 240.586 96.6333 241.686 97.3C242.819 97.9667 244.019 98.3 245.286 98.3C246.586 98.3 247.802 97.9833 248.936 97.35C250.069 96.6833 250.969 95.75 251.636 94.55C252.302 93.3167 252.636 91.85 252.636 90.15ZM285.436 67V104H278.436V67H285.436ZM290.552 90.05C290.552 87.25 291.102 84.7667 292.202 82.6C293.336 80.4333 294.852 78.7667 296.752 77.6C298.686 76.4333 300.836 75.85 303.202 75.85C305.269 75.85 307.069 76.2667 308.602 77.1C310.169 77.9333 311.419 78.9833 312.352 80.25V76.3H319.402V104H312.352V99.95C311.452 101.25 310.202 102.333 308.602 103.2C307.036 104.033 305.219 104.45 303.152 104.45C300.819 104.45 298.686 103.85 296.752 102.65C294.852 101.45 293.336 99.7667 292.202 97.6C291.102 95.4 290.552 92.8833 290.552 90.05ZM312.352 90.15C312.352 88.45 312.019 87 311.352 85.8C310.686 84.5667 309.786 83.6333 308.652 83C307.519 82.3333 306.302 82 305.002 82C303.702 82 302.502 82.3167 301.402 82.95C300.302 83.5833 299.402 84.5167 298.702 85.75C298.036 86.95 297.702 88.3833 297.702 90.05C297.702 91.7167 298.036 93.1833 298.702 94.45C299.402 95.6833 300.302 96.6333 301.402 97.3C302.536 97.9667 303.736 98.3 305.002 98.3C306.302 98.3 307.519 97.9833 308.652 97.35C309.786 96.6833 310.686 95.75 311.352 94.55C312.019 93.3167 312.352 91.85 312.352 90.15ZM345.153 80.6C346.053 79.1333 347.22 77.9833 348.653 77.15C350.12 76.3167 351.786 75.9 353.653 75.9V83.25H351.803C349.603 83.25 347.936 83.7667 346.803 84.8C345.703 85.8333 345.153 87.6333 345.153 90.2V104H338.153V76.3H345.153V80.6ZM384.518 76.3V104H377.468V100.5C376.568 101.7 375.385 102.65 373.918 103.35C372.485 104.017 370.918 104.35 369.218 104.35C367.051 104.35 365.135 103.9 363.468 103C361.801 102.067 360.485 100.717 359.518 98.95C358.585 97.15 358.118 95.0167 358.118 92.55V76.3H365.118V91.55C365.118 93.75 365.668 95.45 366.768 96.65C367.868 97.8167 369.368 98.4 371.268 98.4C373.201 98.4 374.718 97.8167 375.818 96.65C376.918 95.45 377.468 93.75 377.468 91.55V76.3H384.518ZM398.425 67V104H391.425V67H398.425ZM431.091 89.55C431.091 90.55 431.024 91.45 430.891 92.25H410.641C410.807 94.25 411.507 95.8167 412.741 96.95C413.974 98.0833 415.491 98.65 417.291 98.65C419.891 98.65 421.741 97.5333 422.841 95.3H430.391C429.591 97.9667 428.057 100.167 425.791 101.9C423.524 103.6 420.741 104.45 417.441 104.45C414.774 104.45 412.374 103.867 410.241 102.7C408.141 101.5 406.491 99.8167 405.291 97.65C404.124 95.4833 403.541 92.9833 403.541 90.15C403.541 87.2833 404.124 84.7667 405.291 82.6C406.457 80.4333 408.091 78.7667 410.191 77.6C412.291 76.4333 414.707 75.85 417.441 75.85C420.074 75.85 422.424 76.4167 424.491 77.55C426.591 78.6833 428.207 80.3 429.341 82.4C430.507 84.4667 431.091 86.85 431.091 89.55ZM423.841 87.55C423.807 85.75 423.157 84.3167 421.891 83.25C420.624 82.15 419.074 81.6 417.241 81.6C415.507 81.6 414.041 82.1333 412.841 83.2C411.674 84.2333 410.957 85.6833 410.691 87.55H423.841ZM444.35 82.05V95.45C444.35 96.3833 444.567 97.0667 445 97.5C445.467 97.9 446.233 98.1 447.3 98.1H450.55V104H446.15C440.25 104 437.3 101.133 437.3 95.4V82.05H434V76.3H437.3V69.45H444.35V76.3H450.55V82.05H444.35ZM453.785 90.05C453.785 87.25 454.335 84.7667 455.435 82.6C456.568 80.4333 458.085 78.7667 459.985 77.6C461.918 76.4333 464.068 75.85 466.435 75.85C468.501 75.85 470.301 76.2667 471.835 77.1C473.401 77.9333 474.651 78.9833 475.585 80.25V76.3H482.635V104H475.585V99.95C474.685 101.25 473.435 102.333 471.835 103.2C470.268 104.033 468.451 104.45 466.385 104.45C464.051 104.45 461.918 103.85 459.985 102.65C458.085 101.45 456.568 99.7667 455.435 97.6C454.335 95.4 453.785 92.8833 453.785 90.05ZM475.585 90.15C475.585 88.45 475.251 87 474.585 85.8C473.918 84.5667 473.018 83.6333 471.885 83C470.751 82.3333 469.535 82 468.235 82C466.935 82 465.735 82.3167 464.635 82.95C463.535 83.5833 462.635 84.5167 461.935 85.75C461.268 86.95 460.935 88.3833 460.935 90.05C460.935 91.7167 461.268 93.1833 461.935 94.45C462.635 95.6833 463.535 96.6333 464.635 97.3C465.768 97.9667 466.968 98.3 468.235 98.3C469.535 98.3 470.751 97.9833 471.885 97.35C473.018 96.6833 473.918 95.75 474.585 94.55C475.251 93.3167 475.585 91.85 475.585 90.15ZM498.521 68.5L497.721 92.65H491.821L490.971 68.5H498.521ZM494.921 104.35C493.655 104.35 492.605 103.967 491.771 103.2C490.971 102.4 490.571 101.417 490.571 100.25C490.571 99.0833 490.971 98.1167 491.771 97.35C492.605 96.55 493.655 96.15 494.921 96.15C496.155 96.15 497.171 96.55 497.971 97.35C498.771 98.1167 499.171 99.0833 499.171 100.25C499.171 101.417 498.771 102.4 497.971 103.2C497.171 103.967 496.155 104.35 494.921 104.35Z" fill="#1B5A4F"/>
<circle cx="9.5" cy="44.5" r="4.5" fill="#F7E22B"/>
<circle cx="48.5" cy="10.5" r="4.5" fill="#F7E22B"/>
<circle cx="95.5" cy="10.5" r="4.5" fill="#F7E22B"/>
<circle cx="95.5" cy="166.5" r="4.5" fill="#F7E22B"/>
<circle cx="139.5" cy="166.5" r="4.5" fill="#F7E22B"/>
<circle cx="184.5" cy="166.5" r="4.5" fill="#F7E22B"/>
<circle cx="229.5" cy="166.5" r="4.5" fill="#F7E22B"/>
<circle cx="273.5" cy="166.5" r="4.5" fill="#F7E22B"/>
<circle cx="316.5" cy="166.5" r="4.5" fill="#F7E22B"/>
<circle cx="365.5" cy="166.5" r="4.5" fill="#F7E22B"/>
<circle cx="410.5" cy="166.5" r="4.5" fill="#F7E22B"/>
<circle cx="454.5" cy="166.5" r="4.5" fill="#F7E22B"/>
<circle cx="499.5" cy="166.5" r="4.5" fill="#F7E22B"/>
<circle cx="544.5" cy="166.5" r="4.5" fill="#F7E22B"/>
<circle cx="589.5" cy="166.5" r="4.5" fill="#F7E22B"/>
<circle cx="139.5" cy="10.5" r="4.5" fill="#F7E22B"/>
<circle cx="184.5" cy="10.5" r="4.5" fill="#F7E22B"/>
<circle cx="229.5" cy="10.5" r="4.5" fill="#F7E22B"/>
<circle cx="273.5" cy="10.5" r="4.5" fill="#F7E22B"/>
<circle cx="319.5" cy="10.5" r="4.5" fill="#F7E22B"/>
<circle cx="365.5" cy="10.5" r="4.5" fill="#F7E22B"/>
<circle cx="410.5" cy="10.5" r="4.5" fill="#F7E22B"/>
<circle cx="454.5" cy="10.5" r="4.5" fill="#F7E22B"/>
<circle cx="544.5" cy="10.5" r="4.5" fill="#F7E22B"/>
<circle cx="499.5" cy="10.5" r="4.5" fill="#F7E22B"/>
<circle cx="589.5" cy="10.5" r="4.5" fill="#F7E22B"/>
<circle cx="48.5" cy="166.5" r="4.5" fill="#F7E22B"/>
<circle cx="633.5" cy="44.5" r="4.5" fill="#F7E22B"/>
<circle cx="633.5" cy="84.5" r="4.5" fill="#F7E22B"/>
<circle cx="633.5" cy="131.5" r="4.5" fill="#F7E22B"/>
<circle cx="9.5" cy="84.5" r="4.5" fill="#F7E22B"/>
<circle cx="9.5" cy="131.5" r="4.5" fill="#F7E22B"/>
</svg>
